<svg xmlns="http://www.w3.org/2000/svg" viewBox="0 0 512 512">
  <path d="M423 512H89c-22 0-40-18-40-40V89c0-22 18-40 40-40h334c22 0 40 18 40 40v383c0 22-18 40-40 40z" fill="#fff" stroke="#000" stroke-width="20"/>
  <path d="M423 95H89c-3.3 0-6-2.7-6-6V50c0-22 18-40 40-40h266c22 0 40 18 40 40v39c0 3.3-2.7 6-6 6z" fill="#f44336" stroke="#000" stroke-width="20"/>
  <path d="M137 30c0 11-9 20-20 20s-20-9-20-20 9-20 20-20 20 9 20 20zm94 0c0 11-9 20-20 20s-20-9-20-20 9-20 20-20 20 9 20 20zm94 0c0 11-9 20-20 20s-20-9-20-20 9-20 20-20 20 9 20 20zm94 0c0 11-9 20-20 20s-20-9-20-20 9-20 20-20 20 9 20 20z" fill="#555"/>
  <path d="M380 180H132c-3.3 0-6-2.7-6-6s2.7-6 6-6h248c3.3 0 6 2.7 6 6s-2.7 6-6 6zm0 68H132c-3.3 0-6-2.7-6-6s2.7-6 6-6h248c3.3 0 6 2.7 6 6s-2.7 6-6 6zm0 68H132c-3.3 0-6-2.7-6-6s2.7-6 6-6h248c3.3 0 6 2.7 6 6s-2.7 6-6 6zm0 68H132c-3.3 0-6-2.7-6-6s2.7-6 6-6h248c3.3 0 6 2.7 6 6s-2.7 6-6 6z" fill="#000"/>
  <path d="M423 463h-40c0 26 24 39 40 39V463z" fill="#ffe0b2"/>
</svg> 